<svg xmlns="http://www.w3.org/2000/svg" viewBox="0 0 1000 1000" width="1000" height="1000"><rect width="1000" height="1000" fill="#f2efe9"/><circle cx="640.43" cy="346.02" r="88.02" fill="none" stroke="#3a2b1f" stroke-width="1.6" opacity="0.75"/><circle cx="658.04" cy="332.82" r="24.65" fill="#3a2b1f" opacity="0.5"/><circle cx="672.9" cy="437.96" r="78.51" fill="none" stroke="#3a2b1f" stroke-width="1.6" opacity="0.75"/><circle cx="688.61" cy="426.18" r="21.98" fill="#3a2b1f" opacity="0.5"/><circle cx="212.95" cy="228.37" r="56.36" fill="none" stroke="#3a2b1f" stroke-width="1.6" opacity="0.75"/><circle cx="224.22" cy="219.92" r="15.78" fill="#3a2b1f" opacity="0.5"/><circle cx="8.53" cy="461.27" r="60.46" fill="none" stroke="#3a2b1f" stroke-width="1.6" opacity="0.75"/><circle cx="20.62" cy="452.2" r="16.93" fill="#3a2b1f" opacity="0.5"/><circle cx="538.76" cy="75.96" r="64.02" fill="none" stroke="#3a2b1f" stroke-width="1.6" opacity="0.75"/><circle cx="551.56" cy="66.35" r="17.92" fill="#3a2b1f" opacity="0.5"/><circle cx="634.75" cy="975.07" r="105.73" fill="none" stroke="#3a2b1f" stroke-width="1.6" opacity="0.75"/><circle cx="655.9" cy="959.21" r="29.6" fill="#3a2b1f" opacity="0.5"/><circle cx="74.55" cy="484.03" r="134.45" fill="none" stroke="#3a2b1f" stroke-width="1.6" opacity="0.75"/><circle cx="101.45" cy="463.86" r="37.65" fill="#3a2b1f" opacity="0.5"/><circle cx="384.61" cy="524.68" r="82.07" fill="none" stroke="#3a2b1f" stroke-width="1.6" opacity="0.75"/><circle cx="401.03" cy="512.37" r="22.98" fill="#3a2b1f" opacity="0.5"/><circle cx="135.47" cy="820.44" r="111.84" fill="none" stroke="#3a2b1f" stroke-width="1.6" opacity="0.75"/><circle cx="157.84" cy="803.67" r="31.32" fill="#3a2b1f" opacity="0.5"/><circle cx="543.58" cy="181.06" r="40.22" fill="none" stroke="#3a2b1f" stroke-width="1.6" opacity="0.75"/><circle cx="551.62" cy="175.02" r="11.26" fill="#3a2b1f" opacity="0.5"/><circle cx="58.12" cy="45.11" r="59.01" fill="none" stroke="#3a2b1f" stroke-width="1.6" opacity="0.75"/><circle cx="69.92" cy="36.26" r="16.52" fill="#3a2b1f" opacity="0.5"/><circle cx="970.77" cy="178.87" r="114.73" fill="none" stroke="#3a2b1f" stroke-width="1.6" opacity="0.75"/><circle cx="993.71" cy="161.66" r="32.12" fill="#3a2b1f" opacity="0.5"/><circle cx="963.29" cy="422.14" r="98.28" fill="none" stroke="#3a2b1f" stroke-width="1.6" opacity="0.75"/><circle cx="982.95" cy="407.39" r="27.52" fill="#3a2b1f" opacity="0.5"/><circle cx="708.33" cy="718.65" r="48.88" fill="none" stroke="#3a2b1f" stroke-width="1.6" opacity="0.75"/><circle cx="718.11" cy="711.32" r="13.69" fill="#3a2b1f" opacity="0.5"/><circle cx="180.16" cy="365.78" r="132.79" fill="none" stroke="#3a2b1f" stroke-width="1.6" opacity="0.75"/><circle cx="206.72" cy="345.86" r="37.18" fill="#3a2b1f" opacity="0.5"/><circle cx="721.97" cy="510.01" r="105.33" fill="none" stroke="#3a2b1f" stroke-width="1.6" opacity="0.75"/><circle cx="743.03" cy="494.21" r="29.49" fill="#3a2b1f" opacity="0.5"/><circle cx="905.19" cy="773.34" r="151.77" fill="none" stroke="#3a2b1f" stroke-width="1.6" opacity="0.75"/><circle cx="935.54" cy="750.58" r="42.5" fill="#3a2b1f" opacity="0.5"/><circle cx="232.93" cy="957.85" r="141.06" fill="none" stroke="#3a2b1f" stroke-width="1.6" opacity="0.75"/><circle cx="261.15" cy="936.69" r="39.5" fill="#3a2b1f" opacity="0.5"/><circle cx="503.23" cy="872.07" r="97.14" fill="none" stroke="#3a2b1f" stroke-width="1.6" opacity="0.75"/><circle cx="522.66" cy="857.5" r="27.2" fill="#3a2b1f" opacity="0.5"/></svg>