<svg xmlns="http://www.w3.org/2000/svg" viewBox="0 0 1250 1000" width="1250" height="1000"><rect width="1250" height="1000" fill="#eef0ea"/><g opacity="0.55"><line x1="-1000" y1="0" x2="-855.43" y2="1000" stroke="#2f1f2b" stroke-width="1.53"/><line x1="-954.55" y1="0" x2="-809.97" y2="1000" stroke="#2f1f2b" stroke-width="0.82"/><line x1="-909.09" y1="0" x2="-764.52" y2="1000" stroke="#2f1f2b" stroke-width="1.51"/><line x1="-863.64" y1="0" x2="-719.06" y2="1000" stroke="#2f1f2b" stroke-width="0.88"/><line x1="-818.18" y1="0" x2="-673.61" y2="1000" stroke="#2f1f2b" stroke-width="0.96"/><line x1="-772.73" y1="0" x2="-628.15" y2="1000" stroke="#2f1f2b" stroke-width="1.78"/><line x1="-727.27" y1="0" x2="-582.7" y2="1000" stroke="#2f1f2b" stroke-width="1.59"/><line x1="-681.82" y1="0" x2="-537.24" y2="1000" stroke="#2f1f2b" stroke-width="0.98"/><line x1="-636.36" y1="0" x2="-491.79" y2="1000" stroke="#2f1f2b" stroke-width="1.22"/><line x1="-590.91" y1="0" x2="-446.34" y2="1000" stroke="#2f1f2b" stroke-width="1.09"/><line x1="-545.45" y1="0" x2="-400.88" y2="1000" stroke="#2f1f2b" stroke-width="1.74"/><line x1="-500" y1="0" x2="-355.43" y2="1000" stroke="#2f1f2b" stroke-width="1.31"/><line x1="-454.55" y1="0" x2="-309.97" y2="1000" stroke="#2f1f2b" stroke-width="1.01"/><line x1="-409.09" y1="0" x2="-264.52" y2="1000" stroke="#2f1f2b" stroke-width="1.12"/><line x1="-363.64" y1="0" x2="-219.06" y2="1000" stroke="#2f1f2b" stroke-width="1.21"/><line x1="-318.18" y1="0" x2="-173.61" y2="1000" stroke="#2f1f2b" stroke-width="1.03"/><line x1="-272.73" y1="0" x2="-128.15" y2="1000" stroke="#2f1f2b" stroke-width="1.78"/><line x1="-227.27" y1="0" x2="-82.7" y2="1000" stroke="#2f1f2b" stroke-width="1.45"/><line x1="-181.82" y1="0" x2="-37.24" y2="1000" stroke="#2f1f2b" stroke-width="1.06"/><line x1="-136.36" y1="0" x2="8.21" y2="1000" stroke="#2f1f2b" stroke-width="1.77"/><line x1="-90.91" y1="0" x2="53.66" y2="1000" stroke="#2f1f2b" stroke-width="0.78"/><line x1="-45.45" y1="0" x2="99.12" y2="1000" stroke="#2f1f2b" stroke-width="1.25"/><line x1="0" y1="0" x2="144.57" y2="1000" stroke="#2f1f2b" stroke-width="1.31"/><line x1="45.45" y1="0" x2="190.03" y2="1000" stroke="#2f1f2b" stroke-width="0.81"/><line x1="90.91" y1="0" x2="235.48" y2="1000" stroke="#2f1f2b" stroke-width="0.88"/><line x1="136.36" y1="0" x2="280.94" y2="1000" stroke="#2f1f2b" stroke-width="1.51"/><line x1="181.82" y1="0" x2="326.39" y2="1000" stroke="#2f1f2b" stroke-width="0.77"/><line x1="227.27" y1="0" x2="371.85" y2="1000" stroke="#2f1f2b" stroke-width="0.89"/><line x1="272.73" y1="0" x2="417.3" y2="1000" stroke="#2f1f2b" stroke-width="1.47"/><line x1="318.18" y1="0" x2="462.76" y2="1000" stroke="#2f1f2b" stroke-width="1.23"/><line x1="363.64" y1="0" x2="508.21" y2="1000" stroke="#2f1f2b" stroke-width="1.55"/><line x1="409.09" y1="0" x2="553.66" y2="1000" stroke="#2f1f2b" stroke-width="0.95"/><line x1="454.55" y1="0" x2="599.12" y2="1000" stroke="#2f1f2b" stroke-width="1.49"/><line x1="500" y1="0" x2="644.57" y2="1000" stroke="#2f1f2b" stroke-width="1.66"/><line x1="545.45" y1="0" x2="690.03" y2="1000" stroke="#2f1f2b" stroke-width="1.53"/><line x1="590.91" y1="0" x2="735.48" y2="1000" stroke="#2f1f2b" stroke-width="1.67"/><line x1="636.36" y1="0" x2="780.94" y2="1000" stroke="#2f1f2b" stroke-width="0.95"/><line x1="681.82" y1="0" x2="826.39" y2="1000" stroke="#2f1f2b" stroke-width="0.76"/><line x1="727.27" y1="0" x2="871.85" y2="1000" stroke="#2f1f2b" stroke-width="1.2"/><line x1="772.73" y1="0" x2="917.3" y2="1000" stroke="#2f1f2b" stroke-width="0.88"/><line x1="818.18" y1="0" x2="962.76" y2="1000" stroke="#2f1f2b" stroke-width="0.75"/><line x1="863.64" y1="0" x2="1008.21" y2="1000" stroke="#2f1f2b" stroke-width="0.77"/><line x1="909.09" y1="0" x2="1053.66" y2="1000" stroke="#2f1f2b" stroke-width="0.85"/><line x1="954.55" y1="0" x2="1099.12" y2="1000" stroke="#2f1f2b" stroke-width="1.55"/><line x1="1000" y1="0" x2="1144.57" y2="1000" stroke="#2f1f2b" stroke-width="1.13"/><line x1="1045.45" y1="0" x2="1190.03" y2="1000" stroke="#2f1f2b" stroke-width="0.7"/><line x1="1090.91" y1="0" x2="1235.48" y2="1000" stroke="#2f1f2b" stroke-width="1.62"/><line x1="1136.36" y1="0" x2="1280.94" y2="1000" stroke="#2f1f2b" stroke-width="1.24"/><line x1="1181.82" y1="0" x2="1326.39" y2="1000" stroke="#2f1f2b" stroke-width="1.33"/><line x1="1227.27" y1="0" x2="1371.85" y2="1000" stroke="#2f1f2b" stroke-width="1.02"/><line x1="1272.73" y1="0" x2="1417.3" y2="1000" stroke="#2f1f2b" stroke-width="0.81"/><line x1="1318.18" y1="0" x2="1462.76" y2="1000" stroke="#2f1f2b" stroke-width="0.71"/><line x1="1363.64" y1="0" x2="1508.21" y2="1000" stroke="#2f1f2b" stroke-width="1.18"/><line x1="1409.09" y1="0" x2="1553.66" y2="1000" stroke="#2f1f2b" stroke-width="1.64"/><line x1="1454.55" y1="0" x2="1599.12" y2="1000" stroke="#2f1f2b" stroke-width="0.96"/><line x1="1500" y1="0" x2="1644.57" y2="1000" stroke="#2f1f2b" stroke-width="1.06"/><line x1="1545.45" y1="0" x2="1690.03" y2="1000" stroke="#2f1f2b" stroke-width="1.15"/><line x1="1590.91" y1="0" x2="1735.48" y2="1000" stroke="#2f1f2b" stroke-width="1"/><line x1="1636.36" y1="0" x2="1780.94" y2="1000" stroke="#2f1f2b" stroke-width="1.42"/><line x1="1681.82" y1="0" x2="1826.39" y2="1000" stroke="#2f1f2b" stroke-width="0.86"/><line x1="1727.27" y1="0" x2="1871.85" y2="1000" stroke="#2f1f2b" stroke-width="0.73"/><line x1="1772.73" y1="0" x2="1917.3" y2="1000" stroke="#2f1f2b" stroke-width="1.22"/><line x1="1818.18" y1="0" x2="1962.76" y2="1000" stroke="#2f1f2b" stroke-width="0.9"/><line x1="1863.64" y1="0" x2="2008.21" y2="1000" stroke="#2f1f2b" stroke-width="1.69"/><line x1="1909.09" y1="0" x2="2053.66" y2="1000" stroke="#2f1f2b" stroke-width="1.17"/><line x1="1954.55" y1="0" x2="2099.12" y2="1000" stroke="#2f1f2b" stroke-width="1.71"/><line x1="2000" y1="0" x2="2144.57" y2="1000" stroke="#2f1f2b" stroke-width="1.2"/><line x1="2045.45" y1="0" x2="2190.03" y2="1000" stroke="#2f1f2b" stroke-width="1"/><line x1="2090.91" y1="0" x2="2235.48" y2="1000" stroke="#2f1f2b" stroke-width="0.77"/><line x1="2136.36" y1="0" x2="2280.94" y2="1000" stroke="#2f1f2b" stroke-width="1.2"/><line x1="2181.82" y1="0" x2="2326.39" y2="1000" stroke="#2f1f2b" stroke-width="1.75"/><line x1="2227.27" y1="0" x2="2371.85" y2="1000" stroke="#2f1f2b" stroke-width="1.69"/></g><ellipse cx="303.02" cy="381.91" rx="325" ry="200" fill="#2f1f2b" opacity="0.82"/></svg>