<svg xmlns="http://www.w3.org/2000/svg" viewBox="0 0 1000 1500" width="1000" height="1500"><rect width="1000" height="1500" fill="#f3efe8"/><g opacity="0.55"><line x1="-1500" y1="0" x2="-1860.52" y2="1500" stroke="#15171a" stroke-width="1.28"/><line x1="-1465.52" y1="0" x2="-1826.04" y2="1500" stroke="#15171a" stroke-width="1.2"/><line x1="-1431.03" y1="0" x2="-1791.55" y2="1500" stroke="#15171a" stroke-width="1.53"/><line x1="-1396.55" y1="0" x2="-1757.07" y2="1500" stroke="#15171a" stroke-width="1.39"/><line x1="-1362.07" y1="0" x2="-1722.59" y2="1500" stroke="#15171a" stroke-width="1.1"/><line x1="-1327.59" y1="0" x2="-1688.11" y2="1500" stroke="#15171a" stroke-width="1.61"/><line x1="-1293.1" y1="0" x2="-1653.62" y2="1500" stroke="#15171a" stroke-width="1.01"/><line x1="-1258.62" y1="0" x2="-1619.14" y2="1500" stroke="#15171a" stroke-width="1.77"/><line x1="-1224.14" y1="0" x2="-1584.66" y2="1500" stroke="#15171a" stroke-width="1.47"/><line x1="-1189.66" y1="0" x2="-1550.18" y2="1500" stroke="#15171a" stroke-width="1.5"/><line x1="-1155.17" y1="0" x2="-1515.69" y2="1500" stroke="#15171a" stroke-width="1.17"/><line x1="-1120.69" y1="0" x2="-1481.21" y2="1500" stroke="#15171a" stroke-width="0.95"/><line x1="-1086.21" y1="0" x2="-1446.73" y2="1500" stroke="#15171a" stroke-width="1.32"/><line x1="-1051.72" y1="0" x2="-1412.24" y2="1500" stroke="#15171a" stroke-width="1.16"/><line x1="-1017.24" y1="0" x2="-1377.76" y2="1500" stroke="#15171a" stroke-width="1.49"/><line x1="-982.76" y1="0" x2="-1343.28" y2="1500" stroke="#15171a" stroke-width="1.23"/><line x1="-948.28" y1="0" x2="-1308.8" y2="1500" stroke="#15171a" stroke-width="0.95"/><line x1="-913.79" y1="0" x2="-1274.31" y2="1500" stroke="#15171a" stroke-width="1.23"/><line x1="-879.31" y1="0" x2="-1239.83" y2="1500" stroke="#15171a" stroke-width="1.3"/><line x1="-844.83" y1="0" x2="-1205.35" y2="1500" stroke="#15171a" stroke-width="0.82"/><line x1="-810.34" y1="0" x2="-1170.86" y2="1500" stroke="#15171a" stroke-width="1.45"/><line x1="-775.86" y1="0" x2="-1136.38" y2="1500" stroke="#15171a" stroke-width="1.66"/><line x1="-741.38" y1="0" x2="-1101.9" y2="1500" stroke="#15171a" stroke-width="1.12"/><line x1="-706.9" y1="0" x2="-1067.42" y2="1500" stroke="#15171a" stroke-width="1.76"/><line x1="-672.41" y1="0" x2="-1032.93" y2="1500" stroke="#15171a" stroke-width="1.69"/><line x1="-637.93" y1="0" x2="-998.45" y2="1500" stroke="#15171a" stroke-width="0.75"/><line x1="-603.45" y1="0" x2="-963.97" y2="1500" stroke="#15171a" stroke-width="1.44"/><line x1="-568.97" y1="0" x2="-929.49" y2="1500" stroke="#15171a" stroke-width="0.91"/><line x1="-534.48" y1="0" x2="-895" y2="1500" stroke="#15171a" stroke-width="0.93"/><line x1="-500" y1="0" x2="-860.52" y2="1500" stroke="#15171a" stroke-width="0.87"/><line x1="-465.52" y1="0" x2="-826.04" y2="1500" stroke="#15171a" stroke-width="1.44"/><line x1="-431.03" y1="0" x2="-791.55" y2="1500" stroke="#15171a" stroke-width="1.08"/><line x1="-396.55" y1="0" x2="-757.07" y2="1500" stroke="#15171a" stroke-width="1.34"/><line x1="-362.07" y1="0" x2="-722.59" y2="1500" stroke="#15171a" stroke-width="1.01"/><line x1="-327.59" y1="0" x2="-688.11" y2="1500" stroke="#15171a" stroke-width="1.42"/><line x1="-293.1" y1="0" x2="-653.62" y2="1500" stroke="#15171a" stroke-width="0.73"/><line x1="-258.62" y1="0" x2="-619.14" y2="1500" stroke="#15171a" stroke-width="0.79"/><line x1="-224.14" y1="0" x2="-584.66" y2="1500" stroke="#15171a" stroke-width="1.13"/><line x1="-189.66" y1="0" x2="-550.18" y2="1500" stroke="#15171a" stroke-width="1.6"/><line x1="-155.17" y1="0" x2="-515.69" y2="1500" stroke="#15171a" stroke-width="0.83"/><line x1="-120.69" y1="0" x2="-481.21" y2="1500" stroke="#15171a" stroke-width="1.76"/><line x1="-86.21" y1="0" x2="-446.73" y2="1500" stroke="#15171a" stroke-width="0.71"/><line x1="-51.72" y1="0" x2="-412.24" y2="1500" stroke="#15171a" stroke-width="1.08"/><line x1="-17.24" y1="0" x2="-377.76" y2="1500" stroke="#15171a" stroke-width="1.79"/><line x1="17.24" y1="0" x2="-343.28" y2="1500" stroke="#15171a" stroke-width="0.73"/><line x1="51.72" y1="0" x2="-308.8" y2="1500" stroke="#15171a" stroke-width="1.58"/><line x1="86.21" y1="0" x2="-274.31" y2="1500" stroke="#15171a" stroke-width="1.5"/><line x1="120.69" y1="0" x2="-239.83" y2="1500" stroke="#15171a" stroke-width="1.38"/><line x1="155.17" y1="0" x2="-205.35" y2="1500" stroke="#15171a" stroke-width="1.75"/><line x1="189.66" y1="0" x2="-170.86" y2="1500" stroke="#15171a" stroke-width="0.98"/><line x1="224.14" y1="0" x2="-136.38" y2="1500" stroke="#15171a" stroke-width="1.3"/><line x1="258.62" y1="0" x2="-101.9" y2="1500" stroke="#15171a" stroke-width="0.95"/><line x1="293.1" y1="0" x2="-67.42" y2="1500" stroke="#15171a" stroke-width="0.81"/><line x1="327.59" y1="0" x2="-32.93" y2="1500" stroke="#15171a" stroke-width="0.8"/><line x1="362.07" y1="0" x2="1.55" y2="1500" stroke="#15171a" stroke-width="1.11"/><line x1="396.55" y1="0" x2="36.03" y2="1500" stroke="#15171a" stroke-width="1.23"/><line x1="431.03" y1="0" x2="70.51" y2="1500" stroke="#15171a" stroke-width="1.25"/><line x1="465.52" y1="0" x2="105" y2="1500" stroke="#15171a" stroke-width="0.75"/><line x1="500" y1="0" x2="139.48" y2="1500" stroke="#15171a" stroke-width="0.89"/><line x1="534.48" y1="0" x2="173.96" y2="1500" stroke="#15171a" stroke-width="1.3"/><line x1="568.97" y1="0" x2="208.45" y2="1500" stroke="#15171a" stroke-width="0.75"/><line x1="603.45" y1="0" x2="242.93" y2="1500" stroke="#15171a" stroke-width="1.34"/><line x1="637.93" y1="0" x2="277.41" y2="1500" stroke="#15171a" stroke-width="0.9"/><line x1="672.41" y1="0" x2="311.89" y2="1500" stroke="#15171a" stroke-width="0.97"/><line x1="706.9" y1="0" x2="346.38" y2="1500" stroke="#15171a" stroke-width="1.63"/><line x1="741.38" y1="0" x2="380.86" y2="1500" stroke="#15171a" stroke-width="1.48"/><line x1="775.86" y1="0" x2="415.34" y2="1500" stroke="#15171a" stroke-width="1.07"/><line x1="810.34" y1="0" x2="449.82" y2="1500" stroke="#15171a" stroke-width="0.87"/><line x1="844.83" y1="0" x2="484.31" y2="1500" stroke="#15171a" stroke-width="1.59"/><line x1="879.31" y1="0" x2="518.79" y2="1500" stroke="#15171a" stroke-width="0.76"/><line x1="913.79" y1="0" x2="553.27" y2="1500" stroke="#15171a" stroke-width="0.73"/><line x1="948.28" y1="0" x2="587.76" y2="1500" stroke="#15171a" stroke-width="0.83"/><line x1="982.76" y1="0" x2="622.24" y2="1500" stroke="#15171a" stroke-width="1.13"/><line x1="1017.24" y1="0" x2="656.72" y2="1500" stroke="#15171a" stroke-width="1.34"/><line x1="1051.72" y1="0" x2="691.2" y2="1500" stroke="#15171a" stroke-width="0.84"/><line x1="1086.21" y1="0" x2="725.69" y2="1500" stroke="#15171a" stroke-width="1.71"/><line x1="1120.69" y1="0" x2="760.17" y2="1500" stroke="#15171a" stroke-width="0.76"/><line x1="1155.17" y1="0" x2="794.65" y2="1500" stroke="#15171a" stroke-width="0.89"/><line x1="1189.66" y1="0" x2="829.14" y2="1500" stroke="#15171a" stroke-width="0.98"/><line x1="1224.14" y1="0" x2="863.62" y2="1500" stroke="#15171a" stroke-width="1.26"/><line x1="1258.62" y1="0" x2="898.1" y2="1500" stroke="#15171a" stroke-width="1.46"/><line x1="1293.1" y1="0" x2="932.58" y2="1500" stroke="#15171a" stroke-width="1.49"/><line x1="1327.59" y1="0" x2="967.07" y2="1500" stroke="#15171a" stroke-width="1.14"/><line x1="1362.07" y1="0" x2="1001.55" y2="1500" stroke="#15171a" stroke-width="1.58"/><line x1="1396.55" y1="0" x2="1036.03" y2="1500" stroke="#15171a" stroke-width="1.5"/><line x1="1431.03" y1="0" x2="1070.51" y2="1500" stroke="#15171a" stroke-width="1.38"/><line x1="1465.52" y1="0" x2="1105" y2="1500" stroke="#15171a" stroke-width="1.56"/><line x1="1500" y1="0" x2="1139.48" y2="1500" stroke="#15171a" stroke-width="1.08"/><line x1="1534.48" y1="0" x2="1173.96" y2="1500" stroke="#15171a" stroke-width="0.93"/><line x1="1568.97" y1="0" x2="1208.45" y2="1500" stroke="#15171a" stroke-width="1.25"/><line x1="1603.45" y1="0" x2="1242.93" y2="1500" stroke="#15171a" stroke-width="1.18"/><line x1="1637.93" y1="0" x2="1277.41" y2="1500" stroke="#15171a" stroke-width="1.04"/><line x1="1672.41" y1="0" x2="1311.89" y2="1500" stroke="#15171a" stroke-width="1.76"/><line x1="1706.9" y1="0" x2="1346.38" y2="1500" stroke="#15171a" stroke-width="1.64"/><line x1="1741.38" y1="0" x2="1380.86" y2="1500" stroke="#15171a" stroke-width="1.8"/><line x1="1775.86" y1="0" x2="1415.34" y2="1500" stroke="#15171a" stroke-width="1.31"/><line x1="1810.34" y1="0" x2="1449.82" y2="1500" stroke="#15171a" stroke-width="0.7"/><line x1="1844.83" y1="0" x2="1484.31" y2="1500" stroke="#15171a" stroke-width="1.59"/><line x1="1879.31" y1="0" x2="1518.79" y2="1500" stroke="#15171a" stroke-width="1.41"/><line x1="1913.79" y1="0" x2="1553.27" y2="1500" stroke="#15171a" stroke-width="0.77"/><line x1="1948.28" y1="0" x2="1587.76" y2="1500" stroke="#15171a" stroke-width="1.59"/><line x1="1982.76" y1="0" x2="1622.24" y2="1500" stroke="#15171a" stroke-width="1.56"/><line x1="2017.24" y1="0" x2="1656.72" y2="1500" stroke="#15171a" stroke-width="1.18"/><line x1="2051.72" y1="0" x2="1691.2" y2="1500" stroke="#15171a" stroke-width="1.25"/><line x1="2086.21" y1="0" x2="1725.69" y2="1500" stroke="#15171a" stroke-width="1.36"/><line x1="2120.69" y1="0" x2="1760.17" y2="1500" stroke="#15171a" stroke-width="1.09"/><line x1="2155.17" y1="0" x2="1794.65" y2="1500" stroke="#15171a" stroke-width="0.84"/><line x1="2189.66" y1="0" x2="1829.14" y2="1500" stroke="#15171a" stroke-width="0.92"/><line x1="2224.14" y1="0" x2="1863.62" y2="1500" stroke="#15171a" stroke-width="1.15"/><line x1="2258.62" y1="0" x2="1898.1" y2="1500" stroke="#15171a" stroke-width="1.25"/><line x1="2293.1" y1="0" x2="1932.58" y2="1500" stroke="#15171a" stroke-width="1.53"/><line x1="2327.59" y1="0" x2="1967.07" y2="1500" stroke="#15171a" stroke-width="0.86"/><line x1="2362.07" y1="0" x2="2001.55" y2="1500" stroke="#15171a" stroke-width="1.73"/><line x1="2396.55" y1="0" x2="2036.03" y2="1500" stroke="#15171a" stroke-width="0.94"/><line x1="2431.03" y1="0" x2="2070.51" y2="1500" stroke="#15171a" stroke-width="1.54"/><line x1="2465.52" y1="0" x2="2105" y2="1500" stroke="#15171a" stroke-width="1.21"/></g><ellipse cx="392.73" cy="563.1" rx="260" ry="300" fill="#15171a" opacity="0.82"/></svg>