<svg xmlns="http://www.w3.org/2000/svg" viewBox="0 0 1000 1500" width="1000" height="1500"><rect width="1000" height="1500" fill="#f4f1ec"/><g opacity="0.55"><line x1="-1500" y1="0" x2="-1197.8" y2="1500" stroke="#3a2b1f" stroke-width="1.4"/><line x1="-1456.52" y1="0" x2="-1154.32" y2="1500" stroke="#3a2b1f" stroke-width="1.73"/><line x1="-1413.04" y1="0" x2="-1110.85" y2="1500" stroke="#3a2b1f" stroke-width="1.26"/><line x1="-1369.57" y1="0" x2="-1067.37" y2="1500" stroke="#3a2b1f" stroke-width="1.21"/><line x1="-1326.09" y1="0" x2="-1023.89" y2="1500" stroke="#3a2b1f" stroke-width="1.62"/><line x1="-1282.61" y1="0" x2="-980.41" y2="1500" stroke="#3a2b1f" stroke-width="1.76"/><line x1="-1239.13" y1="0" x2="-936.93" y2="1500" stroke="#3a2b1f" stroke-width="1.12"/><line x1="-1195.65" y1="0" x2="-893.46" y2="1500" stroke="#3a2b1f" stroke-width="1.2"/><line x1="-1152.17" y1="0" x2="-849.98" y2="1500" stroke="#3a2b1f" stroke-width="1.08"/><line x1="-1108.7" y1="0" x2="-806.5" y2="1500" stroke="#3a2b1f" stroke-width="1.19"/><line x1="-1065.22" y1="0" x2="-763.02" y2="1500" stroke="#3a2b1f" stroke-width="1.48"/><line x1="-1021.74" y1="0" x2="-719.54" y2="1500" stroke="#3a2b1f" stroke-width="1.67"/><line x1="-978.26" y1="0" x2="-676.06" y2="1500" stroke="#3a2b1f" stroke-width="1.71"/><line x1="-934.78" y1="0" x2="-632.59" y2="1500" stroke="#3a2b1f" stroke-width="1.7"/><line x1="-891.3" y1="0" x2="-589.11" y2="1500" stroke="#3a2b1f" stroke-width="1.12"/><line x1="-847.83" y1="0" x2="-545.63" y2="1500" stroke="#3a2b1f" stroke-width="0.78"/><line x1="-804.35" y1="0" x2="-502.15" y2="1500" stroke="#3a2b1f" stroke-width="1.48"/><line x1="-760.87" y1="0" x2="-458.67" y2="1500" stroke="#3a2b1f" stroke-width="0.74"/><line x1="-717.39" y1="0" x2="-415.19" y2="1500" stroke="#3a2b1f" stroke-width="1.07"/><line x1="-673.91" y1="0" x2="-371.72" y2="1500" stroke="#3a2b1f" stroke-width="0.97"/><line x1="-630.43" y1="0" x2="-328.24" y2="1500" stroke="#3a2b1f" stroke-width="0.91"/><line x1="-586.96" y1="0" x2="-284.76" y2="1500" stroke="#3a2b1f" stroke-width="1.48"/><line x1="-543.48" y1="0" x2="-241.28" y2="1500" stroke="#3a2b1f" stroke-width="1.6"/><line x1="-500" y1="0" x2="-197.8" y2="1500" stroke="#3a2b1f" stroke-width="1.17"/><line x1="-456.52" y1="0" x2="-154.32" y2="1500" stroke="#3a2b1f" stroke-width="0.91"/><line x1="-413.04" y1="0" x2="-110.85" y2="1500" stroke="#3a2b1f" stroke-width="0.91"/><line x1="-369.57" y1="0" x2="-67.37" y2="1500" stroke="#3a2b1f" stroke-width="1.06"/><line x1="-326.09" y1="0" x2="-23.89" y2="1500" stroke="#3a2b1f" stroke-width="1.55"/><line x1="-282.61" y1="0" x2="19.59" y2="1500" stroke="#3a2b1f" stroke-width="0.95"/><line x1="-239.13" y1="0" x2="63.07" y2="1500" stroke="#3a2b1f" stroke-width="1.47"/><line x1="-195.65" y1="0" x2="106.54" y2="1500" stroke="#3a2b1f" stroke-width="1.35"/><line x1="-152.17" y1="0" x2="150.02" y2="1500" stroke="#3a2b1f" stroke-width="1.34"/><line x1="-108.7" y1="0" x2="193.5" y2="1500" stroke="#3a2b1f" stroke-width="1.39"/><line x1="-65.22" y1="0" x2="236.98" y2="1500" stroke="#3a2b1f" stroke-width="1.76"/><line x1="-21.74" y1="0" x2="280.46" y2="1500" stroke="#3a2b1f" stroke-width="0.87"/><line x1="21.74" y1="0" x2="323.94" y2="1500" stroke="#3a2b1f" stroke-width="1.1"/><line x1="65.22" y1="0" x2="367.41" y2="1500" stroke="#3a2b1f" stroke-width="1.46"/><line x1="108.7" y1="0" x2="410.89" y2="1500" stroke="#3a2b1f" stroke-width="1.02"/><line x1="152.17" y1="0" x2="454.37" y2="1500" stroke="#3a2b1f" stroke-width="0.95"/><line x1="195.65" y1="0" x2="497.85" y2="1500" stroke="#3a2b1f" stroke-width="1.42"/><line x1="239.13" y1="0" x2="541.33" y2="1500" stroke="#3a2b1f" stroke-width="0.98"/><line x1="282.61" y1="0" x2="584.81" y2="1500" stroke="#3a2b1f" stroke-width="1.55"/><line x1="326.09" y1="0" x2="628.28" y2="1500" stroke="#3a2b1f" stroke-width="1.69"/><line x1="369.57" y1="0" x2="671.76" y2="1500" stroke="#3a2b1f" stroke-width="1.21"/><line x1="413.04" y1="0" x2="715.24" y2="1500" stroke="#3a2b1f" stroke-width="0.95"/><line x1="456.52" y1="0" x2="758.72" y2="1500" stroke="#3a2b1f" stroke-width="1.21"/><line x1="500" y1="0" x2="802.2" y2="1500" stroke="#3a2b1f" stroke-width="1.01"/><line x1="543.48" y1="0" x2="845.68" y2="1500" stroke="#3a2b1f" stroke-width="0.95"/><line x1="586.96" y1="0" x2="889.15" y2="1500" stroke="#3a2b1f" stroke-width="1.35"/><line x1="630.43" y1="0" x2="932.63" y2="1500" stroke="#3a2b1f" stroke-width="1.68"/><line x1="673.91" y1="0" x2="976.11" y2="1500" stroke="#3a2b1f" stroke-width="1.79"/><line x1="717.39" y1="0" x2="1019.59" y2="1500" stroke="#3a2b1f" stroke-width="1.64"/><line x1="760.87" y1="0" x2="1063.07" y2="1500" stroke="#3a2b1f" stroke-width="1.32"/><line x1="804.35" y1="0" x2="1106.54" y2="1500" stroke="#3a2b1f" stroke-width="1.62"/><line x1="847.83" y1="0" x2="1150.02" y2="1500" stroke="#3a2b1f" stroke-width="1.33"/><line x1="891.3" y1="0" x2="1193.5" y2="1500" stroke="#3a2b1f" stroke-width="1.67"/><line x1="934.78" y1="0" x2="1236.98" y2="1500" stroke="#3a2b1f" stroke-width="1.43"/><line x1="978.26" y1="0" x2="1280.46" y2="1500" stroke="#3a2b1f" stroke-width="1.29"/><line x1="1021.74" y1="0" x2="1323.94" y2="1500" stroke="#3a2b1f" stroke-width="1.52"/><line x1="1065.22" y1="0" x2="1367.41" y2="1500" stroke="#3a2b1f" stroke-width="1.2"/><line x1="1108.7" y1="0" x2="1410.89" y2="1500" stroke="#3a2b1f" stroke-width="1.76"/><line x1="1152.17" y1="0" x2="1454.37" y2="1500" stroke="#3a2b1f" stroke-width="1.1"/><line x1="1195.65" y1="0" x2="1497.85" y2="1500" stroke="#3a2b1f" stroke-width="0.7"/><line x1="1239.13" y1="0" x2="1541.33" y2="1500" stroke="#3a2b1f" stroke-width="1.74"/><line x1="1282.61" y1="0" x2="1584.81" y2="1500" stroke="#3a2b1f" stroke-width="0.93"/><line x1="1326.09" y1="0" x2="1628.28" y2="1500" stroke="#3a2b1f" stroke-width="1.65"/><line x1="1369.57" y1="0" x2="1671.76" y2="1500" stroke="#3a2b1f" stroke-width="1.11"/><line x1="1413.04" y1="0" x2="1715.24" y2="1500" stroke="#3a2b1f" stroke-width="1.14"/><line x1="1456.52" y1="0" x2="1758.72" y2="1500" stroke="#3a2b1f" stroke-width="0.8"/><line x1="1500" y1="0" x2="1802.2" y2="1500" stroke="#3a2b1f" stroke-width="1.5"/><line x1="1543.48" y1="0" x2="1845.68" y2="1500" stroke="#3a2b1f" stroke-width="0.92"/><line x1="1586.96" y1="0" x2="1889.15" y2="1500" stroke="#3a2b1f" stroke-width="0.9"/><line x1="1630.43" y1="0" x2="1932.63" y2="1500" stroke="#3a2b1f" stroke-width="0.96"/><line x1="1673.91" y1="0" x2="1976.11" y2="1500" stroke="#3a2b1f" stroke-width="1.01"/><line x1="1717.39" y1="0" x2="2019.59" y2="1500" stroke="#3a2b1f" stroke-width="1.2"/><line x1="1760.87" y1="0" x2="2063.07" y2="1500" stroke="#3a2b1f" stroke-width="1.28"/><line x1="1804.35" y1="0" x2="2106.54" y2="1500" stroke="#3a2b1f" stroke-width="0.96"/><line x1="1847.83" y1="0" x2="2150.02" y2="1500" stroke="#3a2b1f" stroke-width="1.22"/><line x1="1891.3" y1="0" x2="2193.5" y2="1500" stroke="#3a2b1f" stroke-width="0.88"/><line x1="1934.78" y1="0" x2="2236.98" y2="1500" stroke="#3a2b1f" stroke-width="0.95"/><line x1="1978.26" y1="0" x2="2280.46" y2="1500" stroke="#3a2b1f" stroke-width="0.78"/><line x1="2021.74" y1="0" x2="2323.94" y2="1500" stroke="#3a2b1f" stroke-width="1.63"/><line x1="2065.22" y1="0" x2="2367.41" y2="1500" stroke="#3a2b1f" stroke-width="1.31"/><line x1="2108.7" y1="0" x2="2410.89" y2="1500" stroke="#3a2b1f" stroke-width="1.67"/><line x1="2152.17" y1="0" x2="2454.37" y2="1500" stroke="#3a2b1f" stroke-width="0.86"/><line x1="2195.65" y1="0" x2="2497.85" y2="1500" stroke="#3a2b1f" stroke-width="1.11"/><line x1="2239.13" y1="0" x2="2541.33" y2="1500" stroke="#3a2b1f" stroke-width="1.78"/><line x1="2282.61" y1="0" x2="2584.81" y2="1500" stroke="#3a2b1f" stroke-width="1.26"/><line x1="2326.09" y1="0" x2="2628.28" y2="1500" stroke="#3a2b1f" stroke-width="1.57"/><line x1="2369.57" y1="0" x2="2671.76" y2="1500" stroke="#3a2b1f" stroke-width="1.2"/><line x1="2413.04" y1="0" x2="2715.24" y2="1500" stroke="#3a2b1f" stroke-width="1.15"/><line x1="2456.52" y1="0" x2="2758.72" y2="1500" stroke="#3a2b1f" stroke-width="1.15"/></g><ellipse cx="305.1" cy="416.09" rx="260" ry="300" fill="#3a2b1f" opacity="0.82"/></svg>