<svg xmlns="http://www.w3.org/2000/svg" viewBox="0 0 1000 1500" width="1000" height="1500"><rect width="1000" height="1500" fill="#eceff1"/><line x1="141.43" y1="156.9" x2="271.91" y2="109.33" stroke="#26331f" stroke-width="1.1" opacity="0.45"/><line x1="141.43" y1="156.9" x2="118.31" y2="307.38" stroke="#26331f" stroke-width="1.1" opacity="0.45"/><line x1="141.43" y1="156.9" x2="302.83" y2="342.02" stroke="#26331f" stroke-width="1.1" opacity="0.45"/><line x1="271.91" y1="109.33" x2="522.35" y2="168.61" stroke="#26331f" stroke-width="1.1" opacity="0.45"/><line x1="271.91" y1="109.33" x2="118.31" y2="307.38" stroke="#26331f" stroke-width="1.1" opacity="0.45"/><line x1="271.91" y1="109.33" x2="302.83" y2="342.02" stroke="#26331f" stroke-width="1.1" opacity="0.45"/><line x1="522.35" y1="168.61" x2="679.08" y2="129.64" stroke="#26331f" stroke-width="1.1" opacity="0.45"/><line x1="522.35" y1="168.61" x2="302.83" y2="342.02" stroke="#26331f" stroke-width="1.1" opacity="0.45"/><line x1="522.35" y1="168.61" x2="528.34" y2="386.44" stroke="#26331f" stroke-width="1.1" opacity="0.45"/><line x1="522.35" y1="168.61" x2="656.52" y2="342.18" stroke="#26331f" stroke-width="1.1" opacity="0.45"/><line x1="522.35" y1="168.61" x2="527.66" y2="513.43" stroke="#26331f" stroke-width="1.1" opacity="0.45"/><line x1="679.08" y1="129.64" x2="930.26" y2="186.75" stroke="#26331f" stroke-width="1.1" opacity="0.45"/><line x1="679.08" y1="129.64" x2="528.34" y2="386.44" stroke="#26331f" stroke-width="1.1" opacity="0.45"/><line x1="679.08" y1="129.64" x2="656.52" y2="342.18" stroke="#26331f" stroke-width="1.1" opacity="0.45"/><line x1="679.08" y1="129.64" x2="925.8" y2="326.99" stroke="#26331f" stroke-width="1.1" opacity="0.45"/><line x1="930.26" y1="186.75" x2="656.52" y2="342.18" stroke="#26331f" stroke-width="1.1" opacity="0.45"/><line x1="930.26" y1="186.75" x2="925.8" y2="326.99" stroke="#26331f" stroke-width="1.1" opacity="0.45"/><line x1="118.31" y1="307.38" x2="302.83" y2="342.02" stroke="#26331f" stroke-width="1.1" opacity="0.45"/><line x1="118.31" y1="307.38" x2="138.93" y2="585.81" stroke="#26331f" stroke-width="1.1" opacity="0.45"/><line x1="118.31" y1="307.38" x2="323.56" y2="506.61" stroke="#26331f" stroke-width="1.1" opacity="0.45"/><line x1="302.83" y1="342.02" x2="528.34" y2="386.44" stroke="#26331f" stroke-width="1.1" opacity="0.45"/><line x1="302.83" y1="342.02" x2="656.52" y2="342.18" stroke="#26331f" stroke-width="1.1" opacity="0.45"/><line x1="302.83" y1="342.02" x2="138.93" y2="585.81" stroke="#26331f" stroke-width="1.1" opacity="0.45"/><line x1="302.83" y1="342.02" x2="323.56" y2="506.61" stroke="#26331f" stroke-width="1.1" opacity="0.45"/><line x1="302.83" y1="342.02" x2="527.66" y2="513.43" stroke="#26331f" stroke-width="1.1" opacity="0.45"/><line x1="528.34" y1="386.44" x2="656.52" y2="342.18" stroke="#26331f" stroke-width="1.1" opacity="0.45"/><line x1="528.34" y1="386.44" x2="323.56" y2="506.61" stroke="#26331f" stroke-width="1.1" opacity="0.45"/><line x1="528.34" y1="386.44" x2="527.66" y2="513.43" stroke="#26331f" stroke-width="1.1" opacity="0.45"/><line x1="528.34" y1="386.44" x2="723.84" y2="549.87" stroke="#26331f" stroke-width="1.1" opacity="0.45"/><line x1="656.52" y1="342.18" x2="925.8" y2="326.99" stroke="#26331f" stroke-width="1.1" opacity="0.45"/><line x1="656.52" y1="342.18" x2="323.56" y2="506.61" stroke="#26331f" stroke-width="1.1" opacity="0.45"/><line x1="656.52" y1="342.18" x2="527.66" y2="513.43" stroke="#26331f" stroke-width="1.1" opacity="0.45"/><line x1="656.52" y1="342.18" x2="723.84" y2="549.87" stroke="#26331f" stroke-width="1.1" opacity="0.45"/><line x1="656.52" y1="342.18" x2="864.42" y2="567.24" stroke="#26331f" stroke-width="1.1" opacity="0.45"/><line x1="925.8" y1="326.99" x2="723.84" y2="549.87" stroke="#26331f" stroke-width="1.1" opacity="0.45"/><line x1="925.8" y1="326.99" x2="864.42" y2="567.24" stroke="#26331f" stroke-width="1.1" opacity="0.45"/><line x1="138.93" y1="585.81" x2="323.56" y2="506.61" stroke="#26331f" stroke-width="1.1" opacity="0.45"/><line x1="138.93" y1="585.81" x2="142.82" y2="792.57" stroke="#26331f" stroke-width="1.1" opacity="0.45"/><line x1="138.93" y1="585.81" x2="293.82" y2="761.85" stroke="#26331f" stroke-width="1.1" opacity="0.45"/><line x1="138.93" y1="585.81" x2="106.17" y2="946.12" stroke="#26331f" stroke-width="1.1" opacity="0.45"/><line x1="323.56" y1="506.61" x2="527.66" y2="513.43" stroke="#26331f" stroke-width="1.1" opacity="0.45"/><line x1="323.56" y1="506.61" x2="142.82" y2="792.57" stroke="#26331f" stroke-width="1.1" opacity="0.45"/><line x1="323.56" y1="506.61" x2="293.82" y2="761.85" stroke="#26331f" stroke-width="1.1" opacity="0.45"/><line x1="323.56" y1="506.61" x2="534.11" y2="778.72" stroke="#26331f" stroke-width="1.1" opacity="0.45"/><line x1="527.66" y1="513.43" x2="723.84" y2="549.87" stroke="#26331f" stroke-width="1.1" opacity="0.45"/><line x1="527.66" y1="513.43" x2="864.42" y2="567.24" stroke="#26331f" stroke-width="1.1" opacity="0.45"/><line x1="527.66" y1="513.43" x2="293.82" y2="761.85" stroke="#26331f" stroke-width="1.1" opacity="0.45"/><line x1="527.66" y1="513.43" x2="534.11" y2="778.72" stroke="#26331f" stroke-width="1.1" opacity="0.45"/><line x1="527.66" y1="513.43" x2="667.3" y2="781.04" stroke="#26331f" stroke-width="1.1" opacity="0.45"/><line x1="723.84" y1="549.87" x2="864.42" y2="567.24" stroke="#26331f" stroke-width="1.1" opacity="0.45"/><line x1="723.84" y1="549.87" x2="534.11" y2="778.72" stroke="#26331f" stroke-width="1.1" opacity="0.45"/><line x1="723.84" y1="549.87" x2="667.3" y2="781.04" stroke="#26331f" stroke-width="1.1" opacity="0.45"/><line x1="723.84" y1="549.87" x2="878.1" y2="744.89" stroke="#26331f" stroke-width="1.1" opacity="0.45"/><line x1="864.42" y1="567.24" x2="667.3" y2="781.04" stroke="#26331f" stroke-width="1.1" opacity="0.45"/><line x1="864.42" y1="567.24" x2="878.1" y2="744.89" stroke="#26331f" stroke-width="1.1" opacity="0.45"/><line x1="142.82" y1="792.57" x2="293.82" y2="761.85" stroke="#26331f" stroke-width="1.1" opacity="0.45"/><line x1="142.82" y1="792.57" x2="106.17" y2="946.12" stroke="#26331f" stroke-width="1.1" opacity="0.45"/><line x1="142.82" y1="792.57" x2="315.28" y2="988.44" stroke="#26331f" stroke-width="1.1" opacity="0.45"/><line x1="142.82" y1="792.57" x2="99.56" y2="1142.6" stroke="#26331f" stroke-width="1.1" opacity="0.45"/><line x1="293.82" y1="761.85" x2="534.11" y2="778.72" stroke="#26331f" stroke-width="1.1" opacity="0.45"/><line x1="293.82" y1="761.85" x2="667.3" y2="781.04" stroke="#26331f" stroke-width="1.1" opacity="0.45"/><line x1="293.82" y1="761.85" x2="106.17" y2="946.12" stroke="#26331f" stroke-width="1.1" opacity="0.45"/><line x1="293.82" y1="761.85" x2="315.28" y2="988.44" stroke="#26331f" stroke-width="1.1" opacity="0.45"/><line x1="293.82" y1="761.85" x2="492.29" y2="944.7" stroke="#26331f" stroke-width="1.1" opacity="0.45"/><line x1="534.11" y1="778.72" x2="667.3" y2="781.04" stroke="#26331f" stroke-width="1.1" opacity="0.45"/><line x1="534.11" y1="778.72" x2="878.1" y2="744.89" stroke="#26331f" stroke-width="1.1" opacity="0.45"/><line x1="534.11" y1="778.72" x2="315.28" y2="988.44" stroke="#26331f" stroke-width="1.1" opacity="0.45"/><line x1="534.11" y1="778.72" x2="492.29" y2="944.7" stroke="#26331f" stroke-width="1.1" opacity="0.45"/><line x1="534.11" y1="778.72" x2="740.53" y2="941.19" stroke="#26331f" stroke-width="1.1" opacity="0.45"/><line x1="667.3" y1="781.04" x2="878.1" y2="744.89" stroke="#26331f" stroke-width="1.1" opacity="0.45"/><line x1="667.3" y1="781.04" x2="492.29" y2="944.7" stroke="#26331f" stroke-width="1.1" opacity="0.45"/><line x1="667.3" y1="781.04" x2="740.53" y2="941.19" stroke="#26331f" stroke-width="1.1" opacity="0.45"/><line x1="667.3" y1="781.04" x2="886.53" y2="958.33" stroke="#26331f" stroke-width="1.1" opacity="0.45"/><line x1="878.1" y1="744.89" x2="740.53" y2="941.19" stroke="#26331f" stroke-width="1.1" opacity="0.45"/><line x1="878.1" y1="744.89" x2="886.53" y2="958.33" stroke="#26331f" stroke-width="1.1" opacity="0.45"/><line x1="106.17" y1="946.12" x2="315.28" y2="988.44" stroke="#26331f" stroke-width="1.1" opacity="0.45"/><line x1="106.17" y1="946.12" x2="99.56" y2="1142.6" stroke="#26331f" stroke-width="1.1" opacity="0.45"/><line x1="106.17" y1="946.12" x2="323.92" y2="1176.55" stroke="#26331f" stroke-width="1.1" opacity="0.45"/><line x1="315.28" y1="988.44" x2="492.29" y2="944.7" stroke="#26331f" stroke-width="1.1" opacity="0.45"/><line x1="315.28" y1="988.44" x2="99.56" y2="1142.6" stroke="#26331f" stroke-width="1.1" opacity="0.45"/><line x1="315.28" y1="988.44" x2="323.92" y2="1176.55" stroke="#26331f" stroke-width="1.1" opacity="0.45"/><line x1="315.28" y1="988.44" x2="484.1" y2="1181.7" stroke="#26331f" stroke-width="1.1" opacity="0.45"/><line x1="315.28" y1="988.44" x2="265.13" y2="1355.35" stroke="#26331f" stroke-width="1.1" opacity="0.45"/><line x1="492.29" y1="944.7" x2="740.53" y2="941.19" stroke="#26331f" stroke-width="1.1" opacity="0.45"/><line x1="492.29" y1="944.7" x2="323.92" y2="1176.55" stroke="#26331f" stroke-width="1.1" opacity="0.45"/><line x1="492.29" y1="944.7" x2="484.1" y2="1181.7" stroke="#26331f" stroke-width="1.1" opacity="0.45"/><line x1="492.29" y1="944.7" x2="672.95" y2="1167.77" stroke="#26331f" stroke-width="1.1" opacity="0.45"/><line x1="740.53" y1="941.19" x2="886.53" y2="958.33" stroke="#26331f" stroke-width="1.1" opacity="0.45"/><line x1="740.53" y1="941.19" x2="484.1" y2="1181.7" stroke="#26331f" stroke-width="1.1" opacity="0.45"/><line x1="740.53" y1="941.19" x2="672.95" y2="1167.77" stroke="#26331f" stroke-width="1.1" opacity="0.45"/><line x1="740.53" y1="941.19" x2="859.07" y2="1162.84" stroke="#26331f" stroke-width="1.1" opacity="0.45"/><line x1="886.53" y1="958.33" x2="672.95" y2="1167.77" stroke="#26331f" stroke-width="1.1" opacity="0.45"/><line x1="886.53" y1="958.33" x2="859.07" y2="1162.84" stroke="#26331f" stroke-width="1.1" opacity="0.45"/><line x1="886.53" y1="958.33" x2="871.28" y2="1330.92" stroke="#26331f" stroke-width="1.1" opacity="0.45"/><line x1="99.56" y1="1142.6" x2="323.92" y2="1176.55" stroke="#26331f" stroke-width="1.1" opacity="0.45"/><line x1="99.56" y1="1142.6" x2="143.4" y2="1347.1" stroke="#26331f" stroke-width="1.1" opacity="0.45"/><line x1="99.56" y1="1142.6" x2="265.13" y2="1355.35" stroke="#26331f" stroke-width="1.1" opacity="0.45"/><line x1="323.92" y1="1176.55" x2="484.1" y2="1181.7" stroke="#26331f" stroke-width="1.1" opacity="0.45"/><line x1="323.92" y1="1176.55" x2="672.95" y2="1167.77" stroke="#26331f" stroke-width="1.1" opacity="0.45"/><line x1="323.92" y1="1176.55" x2="143.4" y2="1347.1" stroke="#26331f" stroke-width="1.1" opacity="0.45"/><line x1="323.92" y1="1176.55" x2="265.13" y2="1355.35" stroke="#26331f" stroke-width="1.1" opacity="0.45"/><line x1="323.92" y1="1176.55" x2="467.38" y2="1352.51" stroke="#26331f" stroke-width="1.1" opacity="0.45"/><line x1="484.1" y1="1181.7" x2="672.95" y2="1167.77" stroke="#26331f" stroke-width="1.1" opacity="0.45"/><line x1="484.1" y1="1181.7" x2="265.13" y2="1355.35" stroke="#26331f" stroke-width="1.1" opacity="0.45"/><line x1="484.1" y1="1181.7" x2="467.38" y2="1352.51" stroke="#26331f" stroke-width="1.1" opacity="0.45"/><line x1="484.1" y1="1181.7" x2="708.52" y2="1315.13" stroke="#26331f" stroke-width="1.1" opacity="0.45"/><line x1="672.95" y1="1167.77" x2="859.07" y2="1162.84" stroke="#26331f" stroke-width="1.1" opacity="0.45"/><line x1="672.95" y1="1167.77" x2="467.38" y2="1352.51" stroke="#26331f" stroke-width="1.1" opacity="0.45"/><line x1="672.95" y1="1167.77" x2="708.52" y2="1315.13" stroke="#26331f" stroke-width="1.1" opacity="0.45"/><line x1="672.95" y1="1167.77" x2="871.28" y2="1330.92" stroke="#26331f" stroke-width="1.1" opacity="0.45"/><line x1="859.07" y1="1162.84" x2="708.52" y2="1315.13" stroke="#26331f" stroke-width="1.1" opacity="0.45"/><line x1="859.07" y1="1162.84" x2="871.28" y2="1330.92" stroke="#26331f" stroke-width="1.1" opacity="0.45"/><line x1="143.4" y1="1347.1" x2="265.13" y2="1355.35" stroke="#26331f" stroke-width="1.1" opacity="0.45"/><line x1="143.4" y1="1347.1" x2="467.38" y2="1352.51" stroke="#26331f" stroke-width="1.1" opacity="0.45"/><line x1="265.13" y1="1355.35" x2="467.38" y2="1352.51" stroke="#26331f" stroke-width="1.1" opacity="0.45"/><line x1="467.38" y1="1352.51" x2="708.52" y2="1315.13" stroke="#26331f" stroke-width="1.1" opacity="0.45"/><line x1="708.52" y1="1315.13" x2="871.28" y2="1330.92" stroke="#26331f" stroke-width="1.1" opacity="0.45"/><circle cx="141.43" cy="156.9" r="14" fill="#26331f" opacity="0.85"/><circle cx="271.91" cy="109.33" r="14" fill="#26331f" opacity="0.85"/><circle cx="522.35" cy="168.61" r="14" fill="#26331f" opacity="0.85"/><circle cx="679.08" cy="129.64" r="14" fill="#26331f" opacity="0.85"/><circle cx="930.26" cy="186.75" r="14" fill="#26331f" opacity="0.85"/><circle cx="118.31" cy="307.38" r="14" fill="#26331f" opacity="0.85"/><circle cx="302.83" cy="342.02" r="14" fill="#26331f" opacity="0.85"/><circle cx="528.34" cy="386.44" r="14" fill="#26331f" opacity="0.85"/><circle cx="656.52" cy="342.18" r="14" fill="#26331f" opacity="0.85"/><circle cx="925.8" cy="326.99" r="14" fill="#26331f" opacity="0.85"/><circle cx="138.93" cy="585.81" r="14" fill="#26331f" opacity="0.85"/><circle cx="323.56" cy="506.61" r="14" fill="#26331f" opacity="0.85"/><circle cx="527.66" cy="513.43" r="14" fill="#26331f" opacity="0.85"/><circle cx="723.84" cy="549.87" r="14" fill="#26331f" opacity="0.85"/><circle cx="864.42" cy="567.24" r="14" fill="#26331f" opacity="0.85"/><circle cx="142.82" cy="792.57" r="14" fill="#26331f" opacity="0.85"/><circle cx="293.82" cy="761.85" r="14" fill="#26331f" opacity="0.85"/><circle cx="534.11" cy="778.72" r="14" fill="#26331f" opacity="0.85"/><circle cx="667.3" cy="781.04" r="14" fill="#26331f" opacity="0.85"/><circle cx="878.1" cy="744.89" r="14" fill="#26331f" opacity="0.85"/><circle cx="106.17" cy="946.12" r="14" fill="#26331f" opacity="0.85"/><circle cx="315.28" cy="988.44" r="14" fill="#26331f" opacity="0.85"/><circle cx="492.29" cy="944.7" r="14" fill="#26331f" opacity="0.85"/><circle cx="740.53" cy="941.19" r="14" fill="#26331f" opacity="0.85"/><circle cx="886.53" cy="958.33" r="14" fill="#26331f" opacity="0.85"/><circle cx="99.56" cy="1142.6" r="14" fill="#26331f" opacity="0.85"/><circle cx="323.92" cy="1176.55" r="14" fill="#26331f" opacity="0.85"/><circle cx="484.1" cy="1181.7" r="14" fill="#26331f" opacity="0.85"/><circle cx="672.95" cy="1167.77" r="14" fill="#26331f" opacity="0.85"/><circle cx="859.07" cy="1162.84" r="14" fill="#26331f" opacity="0.85"/><circle cx="143.4" cy="1347.1" r="14" fill="#26331f" opacity="0.85"/><circle cx="265.13" cy="1355.35" r="14" fill="#26331f" opacity="0.85"/><circle cx="467.38" cy="1352.51" r="14" fill="#26331f" opacity="0.85"/><circle cx="708.52" cy="1315.13" r="14" fill="#26331f" opacity="0.85"/><circle cx="871.28" cy="1330.92" r="14" fill="#26331f" opacity="0.85"/></svg>