<svg xmlns="http://www.w3.org/2000/svg" viewBox="0 0 1500 1000" width="1500" height="1000"><rect width="1500" height="1000" fill="#eceff1"/><rect x="7.71" y="723.92" width="27.43" height="276.08" fill="#15171a" opacity="0.55"/><rect x="50.57" y="368.59" width="27.43" height="631.41" fill="#15171a" opacity="0.37"/><rect x="93.43" y="913.15" width="27.43" height="86.85" fill="#15171a" opacity="0.41"/><rect x="136.29" y="393.91" width="27.43" height="606.09" fill="#15171a" opacity="0.56"/><rect x="179.14" y="725.89" width="27.43" height="274.11" fill="#15171a" opacity="0.49"/><rect x="222" y="919.23" width="27.43" height="80.77" fill="#15171a" opacity="0.39"/><rect x="264.86" y="858.55" width="27.43" height="141.45" fill="#15171a" opacity="0.53"/><rect x="307.71" y="874.64" width="27.43" height="125.36" fill="#15171a" opacity="0.8"/><rect x="350.57" y="238.16" width="27.43" height="761.84" fill="#15171a" opacity="0.7"/><rect x="393.43" y="532.03" width="27.43" height="467.97" fill="#15171a" opacity="0.75"/><rect x="436.29" y="133.25" width="27.43" height="866.75" fill="#15171a" opacity="0.7"/><rect x="479.14" y="830.42" width="27.43" height="169.58" fill="#15171a" opacity="0.77"/><rect x="522" y="585.78" width="27.43" height="414.22" fill="#15171a" opacity="0.38"/><rect x="564.86" y="748.9" width="27.43" height="251.1" fill="#15171a" opacity="0.36"/><rect x="607.71" y="917.75" width="27.43" height="82.25" fill="#15171a" opacity="0.52"/><rect x="650.57" y="382.1" width="27.43" height="617.9" fill="#15171a" opacity="0.63"/><rect x="693.43" y="589.3" width="27.43" height="410.7" fill="#15171a" opacity="0.54"/><rect x="736.29" y="638.28" width="27.43" height="361.72" fill="#15171a" opacity="0.64"/><rect x="779.14" y="915.55" width="27.43" height="84.45" fill="#15171a" opacity="0.59"/><rect x="822" y="897.35" width="27.43" height="102.65" fill="#15171a" opacity="0.78"/><rect x="864.86" y="453.72" width="27.43" height="546.28" fill="#15171a" opacity="0.69"/><rect x="907.71" y="454.04" width="27.43" height="545.96" fill="#15171a" opacity="0.7"/><rect x="950.57" y="888.32" width="27.43" height="111.68" fill="#15171a" opacity="0.74"/><rect x="993.43" y="651.95" width="27.43" height="348.05" fill="#15171a" opacity="0.43"/><rect x="1036.29" y="733.11" width="27.43" height="266.89" fill="#15171a" opacity="0.69"/><rect x="1079.14" y="203.8" width="27.43" height="796.2" fill="#15171a" opacity="0.83"/><rect x="1122" y="183.82" width="27.43" height="816.18" fill="#15171a" opacity="0.7"/><rect x="1164.86" y="916.24" width="27.43" height="83.76" fill="#15171a" opacity="0.38"/><rect x="1207.71" y="807.11" width="27.43" height="192.89" fill="#15171a" opacity="0.64"/><rect x="1250.57" y="907.48" width="27.43" height="92.52" fill="#15171a" opacity="0.72"/><rect x="1293.43" y="335.05" width="27.43" height="664.95" fill="#15171a" opacity="0.79"/><rect x="1336.29" y="872.75" width="27.43" height="127.25" fill="#15171a" opacity="0.83"/><rect x="1379.14" y="881.13" width="27.43" height="118.87" fill="#15171a" opacity="0.56"/><rect x="1422" y="441.57" width="27.43" height="558.43" fill="#15171a" opacity="0.69"/><rect x="1464.86" y="730.71" width="27.43" height="269.29" fill="#15171a" opacity="0.72"/><line x1="0" y1="999" x2="1500" y2="999" stroke="#15171a" stroke-width="2"/></svg>