<svg xmlns="http://www.w3.org/2000/svg" viewBox="0 0 1000 1000" width="1000" height="1000"><rect width="1000" height="1000" fill="#f4f1ec"/><rect x="4.62" y="741.72" width="16.41" height="258.28" fill="#26331f" opacity="0.37"/><rect x="30.26" y="341.41" width="16.41" height="658.59" fill="#26331f" opacity="0.76"/><rect x="55.9" y="596.31" width="16.41" height="403.69" fill="#26331f" opacity="0.59"/><rect x="81.54" y="411.33" width="16.41" height="588.67" fill="#26331f" opacity="0.55"/><rect x="107.18" y="298.03" width="16.41" height="701.97" fill="#26331f" opacity="0.4"/><rect x="132.82" y="893.36" width="16.41" height="106.64" fill="#26331f" opacity="0.73"/><rect x="158.46" y="841.37" width="16.41" height="158.63" fill="#26331f" opacity="0.74"/><rect x="184.1" y="894.75" width="16.41" height="105.25" fill="#26331f" opacity="0.54"/><rect x="209.74" y="652.97" width="16.41" height="347.03" fill="#26331f" opacity="0.53"/><rect x="235.38" y="411.26" width="16.41" height="588.74" fill="#26331f" opacity="0.63"/><rect x="261.03" y="895.07" width="16.41" height="104.93" fill="#26331f" opacity="0.37"/><rect x="286.67" y="830.3" width="16.41" height="169.7" fill="#26331f" opacity="0.59"/><rect x="312.31" y="137.13" width="16.41" height="862.87" fill="#26331f" opacity="0.8"/><rect x="337.95" y="703.8" width="16.41" height="296.2" fill="#26331f" opacity="0.82"/><rect x="363.59" y="815.97" width="16.41" height="184.03" fill="#26331f" opacity="0.76"/><rect x="389.23" y="812.35" width="16.41" height="187.65" fill="#26331f" opacity="0.41"/><rect x="414.87" y="884.63" width="16.41" height="115.37" fill="#26331f" opacity="0.45"/><rect x="440.51" y="916.25" width="16.41" height="83.75" fill="#26331f" opacity="0.6"/><rect x="466.15" y="778.23" width="16.41" height="221.77" fill="#26331f" opacity="0.78"/><rect x="491.79" y="899.31" width="16.41" height="100.69" fill="#26331f" opacity="0.55"/><rect x="517.44" y="798.72" width="16.41" height="201.28" fill="#26331f" opacity="0.74"/><rect x="543.08" y="610.7" width="16.41" height="389.3" fill="#26331f" opacity="0.56"/><rect x="568.72" y="919.91" width="16.41" height="80.09" fill="#26331f" opacity="0.7"/><rect x="594.36" y="459.26" width="16.41" height="540.74" fill="#26331f" opacity="0.61"/><rect x="620" y="912.72" width="16.41" height="87.28" fill="#26331f" opacity="0.55"/><rect x="645.64" y="637.19" width="16.41" height="362.81" fill="#26331f" opacity="0.62"/><rect x="671.28" y="365.43" width="16.41" height="634.57" fill="#26331f" opacity="0.65"/><rect x="696.92" y="659.09" width="16.41" height="340.91" fill="#26331f" opacity="0.54"/><rect x="722.56" y="385.88" width="16.41" height="614.12" fill="#26331f" opacity="0.43"/><rect x="748.21" y="603.55" width="16.41" height="396.45" fill="#26331f" opacity="0.4"/><rect x="773.85" y="768.09" width="16.41" height="231.91" fill="#26331f" opacity="0.37"/><rect x="799.49" y="896.4" width="16.41" height="103.6" fill="#26331f" opacity="0.74"/><rect x="825.13" y="879.89" width="16.41" height="120.11" fill="#26331f" opacity="0.61"/><rect x="850.77" y="916.55" width="16.41" height="83.45" fill="#26331f" opacity="0.73"/><rect x="876.41" y="914.1" width="16.41" height="85.9" fill="#26331f" opacity="0.64"/><rect x="902.05" y="914.81" width="16.41" height="85.19" fill="#26331f" opacity="0.58"/><rect x="927.69" y="395.14" width="16.41" height="604.86" fill="#26331f" opacity="0.46"/><rect x="953.33" y="913.83" width="16.41" height="86.17" fill="#26331f" opacity="0.65"/><rect x="978.97" y="884.27" width="16.41" height="115.73" fill="#26331f" opacity="0.49"/><line x1="0" y1="999" x2="1000" y2="999" stroke="#26331f" stroke-width="2"/></svg>