<svg xmlns="http://www.w3.org/2000/svg" viewBox="0 0 1000 1778" width="1000" height="1778"><rect width="1000" height="1778" fill="#f4f1ec"/><polygon points="0,0 0,29.47 100,40.43 200,-19.73 300,25.12 400,29.35 500,-22.29 600,14.26 700,-34.97 800,-34.12 900,29.96 1000,-10.97 1000,277.95 0,277.95" fill="#3a2b1f" opacity="0.14"/><polygon points="0,277.95 0,246.34 100,267.28 200,283.96 300,279.27 400,264.14 500,267.03 600,307.58 700,318.16 800,260.89 900,253.68 1000,298.11 1000,432.26 0,432.26" fill="#3a2b1f" opacity="0.2"/><polygon points="0,432.26 0,423.07 100,404.33 200,472.85 300,448.99 400,437.18 500,389.45 600,412.31 700,437.95 800,472.93 900,421.34 1000,438.18 1000,674 0,674" fill="#3a2b1f" opacity="0.26"/><polygon points="0,674 0,714.53 100,700.55 200,635.76 300,668.44 400,670.71 500,694.59 600,710.74 700,677.42 800,655.08 900,681.99 1000,699.7 1000,906.4 0,906.4" fill="#3a2b1f" opacity="0.32"/><polygon points="0,906.4 0,890.2 100,926.88 200,869.99 300,863.33 400,910.17 500,883.79 600,940.87 700,901.6 800,892.51 900,863.99 1000,919.28 1000,1077.61 0,1077.61" fill="#3a2b1f" opacity="0.38"/><polygon points="0,1077.61 0,1107.22 100,1066.47 200,1034.02 300,1046.94 400,1080.24 500,1108.92 600,1087.55 700,1078.55 800,1097.68 900,1117.61 1000,1036.16 1000,1332.31 0,1332.31" fill="#3a2b1f" opacity="0.45"/><polygon points="0,1332.31 0,1320.78 100,1290.18 200,1366.83 300,1296.6 400,1341.41 500,1362.4 600,1321.21 700,1294.31 800,1366.53 900,1299.84 1000,1366.55 1000,1558.08 0,1558.08" fill="#3a2b1f" opacity="0.51"/><polygon points="0,1558.08 0,1561.83 100,1574.87 200,1551.48 300,1527.41 400,1526.38 500,1602.18 600,1557.72 700,1541.53 800,1597.3 900,1529.58 1000,1570.13 1000,1683.84 0,1683.84" fill="#3a2b1f" opacity="0.57"/><polygon points="0,1683.84 0,1720.36 100,1650.17 200,1701 300,1712.31 400,1680.93 500,1665.16 600,1703.94 700,1654.19 800,1685.16 900,1707.71 1000,1665.64 1000,1822.77 0,1822.77" fill="#3a2b1f" opacity="0.63"/></svg>